<svg width="160" height="160" viewBox="0 0 160 160" fill="none" xmlns="http://www.w3.org/2000/svg">
<path d="M35 66H126V136H35V66Z" fill="#FFD0B3" stroke="#2E4B21" stroke-width="3" stroke-linecap="round" stroke-linejoin="round"/>
<path d="M27 49H133V70H27V49Z" fill="#F5B1CB" stroke="#2E4B21" stroke-width="3" stroke-linecap="round" stroke-linejoin="round"/>
<path d="M73 48.9999V136H90V48.9999M80 48.9999C39 47.9999 40 11.9999 59 18.9999C73 22.9999 80 48.9999 80 48.9999ZM81 48.9999C121 47.9999 123 11.9999 105 18.9999C90 21.9999 81 48.9999 81 48.9999Z" fill="#F9F8F1"/>
<path d="M73 48.9999V136H90V48.9999M80 48.9999C39 47.9999 40 11.9999 59 18.9999C73 22.9999 80 48.9999 80 48.9999ZM81 48.9999C121 47.9999 123 11.9999 105 18.9999C90 21.9999 81 48.9999 81 48.9999Z" stroke="#2E4B21" stroke-width="3" stroke-linecap="round" stroke-linejoin="round"/>
</svg>

