<svg width="160" height="160" viewBox="0 0 160 160" fill="none" xmlns="http://www.w3.org/2000/svg">
<path d="M28 73H103V112C103 129.333 90.6667 138 66 138C40.6667 138 28 129.333 28 112V73Z" fill="#F5B1CB" stroke="#2E4B21" stroke-width="3" stroke-linecap="round" stroke-linejoin="round"/>
<path d="M103 81H118C132 82.3333 135 91 127 107C122.333 116.333 114.333 119.333 103 116" stroke="#2E4B21" stroke-width="3" stroke-linecap="round" stroke-linejoin="round"/>
<path d="M54 56C46.6667 48 46.6667 40.3333 54 33M75 56C67.6667 48 67.6667 40.3333 75 33" stroke="#2E4B21" stroke-width="3" stroke-linecap="round" stroke-linejoin="round"/>
<path d="M121 45.9991C96 30.9991 109 15.9991 121 25.9991C133 13.9991 147 31.9991 121 45.9991Z" fill="#E9F3BE" stroke="#2E4B21" stroke-width="3" stroke-linecap="round" stroke-linejoin="round"/>
</svg>

